<svg xmlns="http://www.w3.org/2000/svg" viewBox="0 0 105 105"><defs><style>.cls-1{fill:#fff3f8;}.cls-2{fill:#333;}.cls-3{fill:#ff7bac;}</style></defs><title>Ресурс 5</title><g id="Слой_2" data-name="Слой 2"><g id="Слой_1-2" data-name="Слой 1"><circle class="cls-1" cx="52.5" cy="52.5" r="52.5" transform="translate(-21.34 44.74) rotate(-39)"/><path class="cls-2" d="M42.36,27.15l0,47.83a1,1,0,0,1-1,1H38.67a1,1,0,0,1-1-1l0-47.83a1,1,0,0,0-1-1H25.49a2,2,0,0,1-2-2.14v-.36a2,2,0,0,1,2-2.14H54.68a1.92,1.92,0,0,1,1.86,2.14V24a2,2,0,0,1-1.95,2.14H43.27A.92.92,0,0,0,42.36,27.15Z"/><path class="cls-3" d="M52.5,82.15a1.83,1.83,0,0,1,2.63-1.65l0,0a21.51,21.51,0,0,0,3,1.19,21.76,21.76,0,0,0,3.07.72,18.54,18.54,0,0,0,3,.24q5.47,0,8.19-2.1a7.12,7.12,0,0,0,2.71-6,7.94,7.94,0,0,0-.64-3.3,8.16,8.16,0,0,0-2-2.63,20.52,20.52,0,0,0-3.4-2.43Q67,65,64.22,63.47q-3.09-1.65-5.29-3.12a19.35,19.35,0,0,1-3.6-3A10.16,10.16,0,0,1,53.27,54a11.84,11.84,0,0,1-.66-4.08,10.66,10.66,0,0,1,1.23-5.18,12.1,12.1,0,0,1,3.35-3.9,15.57,15.57,0,0,1,4.95-2.48,20.74,20.74,0,0,1,6.06-.87,27.33,27.33,0,0,1,8.23,1.08,1.81,1.81,0,0,1,1.27,1.73v.79a1.79,1.79,0,0,1-2.42,1.68,21.29,21.29,0,0,0-7.58-1.27,15.43,15.43,0,0,0-4,.52,10.64,10.64,0,0,0-3.32,1.51A7.34,7.34,0,0,0,58.09,46a6.94,6.94,0,0,0-.82,3.43,8.37,8.37,0,0,0,.56,3.2,7.61,7.61,0,0,0,1.78,2.53,17,17,0,0,0,3.23,2.37q2,1.17,4.89,2.69A58.37,58.37,0,0,1,73,63.34a20.38,20.38,0,0,1,3.75,3.14A11.6,11.6,0,0,1,79,70a10.92,10.92,0,0,1,.75,4.09,12.21,12.21,0,0,1-1.17,5.49,10.73,10.73,0,0,1-3.28,3.94,15.07,15.07,0,0,1-5,2.36,24.16,24.16,0,0,1-9.13.63q-1.58-.18-3.19-.52a30.17,30.17,0,0,1-3.07-.82q-.74-.24-1.35-.51a1.77,1.77,0,0,1-1-1.62Z"/></g></g></svg>